<svg xmlns="http://www.w3.org/2000/svg" width="92.389" height="88.776" viewBox="0 0 92.389 88.776">
    <defs>
        <clipPath id="v1ssdcj63a">
            <path data-name="Path 42761" d="M14.42 0h49.55a19.613 19.613 0 0 1 19.613 19.613 176.156 176.156 0 0 1 1.806 23.96 218.866 218.866 0 0 1-1.806 25.59 19.613 19.613 0 0 1-19.614 19.613H14.42A19.613 19.613 0 0 1-5.194 69.163 248.578 248.578 0 0 1-7 42.556a152.41 152.41 0 0 1 1.806-22.943A19.613 19.613 0 0 1 14.42 0z" transform="translate(7)" style="fill:#fff"/>
        </clipPath>
    </defs>
    <path data-name="Path 4" d="M13.7 0h47.9a18.958 18.958 0 0 1 18.958 18.958 170.272 170.272 0 0 1 1.742 23.16 211.556 211.556 0 0 1-1.746 24.735A18.958 18.958 0 0 1 61.6 85.812H13.7A18.958 18.958 0 0 1-5.254 66.854 240.278 240.278 0 0 1-7 41.135a147.321 147.321 0 0 1 1.746-22.177A18.958 18.958 0 0 1 13.7 0z" transform="translate(8.542 2.964)" style="fill:#f5fafa"/>
    <g data-name="Mask Group 56570" style="clip-path:url(#v1ssdcj63a)">
        <g data-name="Group 11">
            <g style="mix-blend-mode:multiply;isolation:isolate">
                <path data-name="M - Outline" d="M-94.931-180.809a6.161 6.161 0 0 1-4.389-1.807 6.133 6.133 0 0 1-1.487-2.4h-.019l-.044.09-.15.23a6.183 6.183 0 0 1-5.235 2.887 6.113 6.113 0 0 1-5.438-3.207h-.01a6.134 6.134 0 0 1-1.487 2.4 6.161 6.161 0 0 1-4.389 1.807 6.161 6.161 0 0 1-4.389-1.807 6.161 6.161 0 0 1-1.808-4.384v-22.62a6.136 6.136 0 0 1 1.861-4.459 6.2 6.2 0 0 1 4.335-1.737 6.106 6.106 0 0 1 5.408 3.182l5.99 11.989 5.77-11.861.073-.129a6.106 6.106 0 0 1 5.408-3.182 6.2 6.2 0 0 1 4.335 1.737 6.05 6.05 0 0 1 1.631 2.747s.112.464.17.882a6.846 6.846 0 0 1 .06.789V-187a6.125 6.125 0 0 1-1.876 4.44 6.185 6.185 0 0 1-4.32 1.751z" transform="translate(143.07 228.86)" style="fill:#1ea3ff"/>
            </g>
            <g data-name="Group 2" transform="translate(31.152 30.57)">
                <ellipse data-name="Ellipse 1" cx="1.84" cy="1.769" rx="1.84" ry="1.769" transform="translate(.991)" style="fill:#1e303c"/>
                <ellipse data-name="Ellipse 3" cx="2.194" cy="2.123" rx="2.194" ry="2.123" transform="translate(0 4.813)" style="fill:#1e303c"/>
                <path data-name="Path 42756" d="M1.84 0a1.984 1.984 0 0 1 1.288.505 1.645 1.645 0 0 1 .552 1.264 1.806 1.806 0 0 1-1.84 1.77A1.806 1.806 0 0 1 0 1.769 1.806 1.806 0 0 1 1.84 0z" transform="translate(6.228)" style="fill:#1e303c"/>
            </g>
        </g>
        <g data-name="Group 8">
            <g data-name="Group" style="mix-blend-mode:multiply;isolation:isolate">
                <path data-name="Y - Outline" d="M15.433 35.007a6.17 6.17 0 0 1-6.162-6.2v-6.571l-.942-1.362L1.061 9.577a6.359 6.359 0 0 1-.986-4.446A6.051 6.051 0 0 1 2.29 1.35 6.2 6.2 0 0 1 6.18 0a5.874 5.874 0 0 1 3.577 1.142 7.157 7.157 0 0 1 1.71 1.874l4.079 6.472 4.172-6.581A6.511 6.511 0 0 1 21.85.837 6.142 6.142 0 0 1 25.021 0a5.793 5.793 0 0 1 4.219 1.788 6.167 6.167 0 0 1 1.684 3.644 6.369 6.369 0 0 1-1 4.113l-7.272 11.22-1.025 1.47v6.576a6.17 6.17 0 0 1-6.2 6.2z" transform="rotate(13 -20.614 209.63)" style="fill:#6be610"/>
            </g>
            <g data-name="Group 5" transform="rotate(13 -80.123 260.488)">
                <path data-name="Path 42757" d="M1.878 0a2.049 2.049 0 0 1 1.137.371 1.722 1.722 0 0 1 .741 1.447 1.849 1.849 0 0 1-1.878 1.818A1.849 1.849 0 0 1 0 1.818 1.849 1.849 0 0 1 1.878 0z" style="fill:#1e303c"/>
                <ellipse data-name="Ellipse 6" cx="1.878" cy="1.818" rx="1.878" ry="1.818" transform="translate(4.924)" style="fill:#1e303c"/>
                <path data-name="Path 1" d="M3.4 3.4A3.4 3.4 0 0 1 0 0h1.84A1.559 1.559 0 0 0 3.4 1.557 1.559 1.559 0 0 0 4.954 0h1.84A3.4 3.4 0 0 1 3.4 3.4z" transform="translate(1.887 5.18)" style="fill:#1e303c"/>
            </g>
        </g>
        <g data-name="Group 9">
            <g data-name="Group" style="mix-blend-mode:multiply;isolation:isolate">
                <path data-name="G - Outline" d="M-82.588-174.669a16.733 16.733 0 0 1-6.686-1.354 16.706 16.706 0 0 1-5.431-3.755 17.362 17.362 0 0 1-3.591-5.575 18.159 18.159 0 0 1-1.286-6.837 17.929 17.929 0 0 1 1.29-6.792 17.41 17.41 0 0 1 3.588-5.55 16.994 16.994 0 0 1 5.386-3.761 16.508 16.508 0 0 1 6.73-1.383 17.21 17.21 0 0 1 5.819.906 16.813 16.813 0 0 1 4.883 2.855 5.328 5.328 0 0 1 1.131 1.177 4.743 4.743 0 0 1 .732 1.637 5.788 5.788 0 0 1 .14 1.315 4.944 4.944 0 0 1-1.524 3.592 5.156 5.156 0 0 1-3.361 1.446l-.266.007a5.26 5.26 0 0 1-3.37-1.241 7.284 7.284 0 0 0-1.866-1.22 6.094 6.094 0 0 0-2.319-.319 5.761 5.761 0 0 0-2.466.528 6.848 6.848 0 0 0-2.156 1.556 7.249 7.249 0 0 0-1.473 2.343 7.735 7.735 0 0 0-.532 2.9 7.832 7.832 0 0 0 .532 2.938 7.249 7.249 0 0 0 1.473 2.343 6.616 6.616 0 0 0 2.132 1.528 5.923 5.923 0 0 0 2.491.522 5.917 5.917 0 0 0 2.162-.387l.071-.028v-.748h-1.425a5.328 5.328 0 0 1-3.544-1.294 4.892 4.892 0 0 1-1.709-3.749 4.892 4.892 0 0 1 1.709-3.749 5.328 5.328 0 0 1 3.544-1.294h6.573a5.171 5.171 0 0 1 3.765 1.556 5.21 5.21 0 0 1 1.453 3.7v8.4a5.392 5.392 0 0 1-.334 1.87 4.931 4.931 0 0 1-1.378 1.991 16.531 16.531 0 0 1-5.2 2.979 17.329 17.329 0 0 1-5.687.947z" transform="translate(143.135 250.876)" style="fill:#ffb324"/>
            </g>
            <g data-name="Group 4" transform="translate(58.385 57.21)">
                <path data-name="Path 42763" d="M1.977 0a1.945 1.945 0 0 1 1.976 1.913 1.945 1.945 0 0 1-1.976 1.912A1.945 1.945 0 0 1 0 1.913 1.945 1.945 0 0 1 1.977 0z" style="fill:#1e303c"/>
                <ellipse data-name="Ellipse 7" cx="1.977" cy="1.913" rx="1.977" ry="1.913" transform="translate(5.182)" style="fill:#1e303c"/>
                <path data-name="Path 2" d="M0 3.575V1.638A1.64 1.64 0 0 0 1.638 0h1.937A3.579 3.579 0 0 1 0 3.575z" transform="translate(8.49 4.57)" style="fill:#1e303c"/>
            </g>
        </g>
        <g data-name="Group 10">
            <g data-name="Group" style="mix-blend-mode:multiply;isolation:isolate">
                <path data-name="K - Outline" d="M20.226 35.007a6.1 6.1 0 0 1-5.12-2.682l-2.714-3.678v.164a6.195 6.195 0 0 1-10.516 4.44A6.125 6.125 0 0 1 0 28.811V6.2a6.125 6.125 0 0 1 1.876-4.44 6.187 6.187 0 0 1 10.477 3.732l3.484-3.484A6.917 6.917 0 0 1 17.9.543 6.128 6.128 0 0 1 20.427 0a5.771 5.771 0 0 1 4.8 2.323 6.027 6.027 0 0 1 1.083 4.468 6.767 6.767 0 0 1-1.8 3.663L18.6 16.39l6.424 8.747A6.232 6.232 0 0 1 26.2 29.45a6.371 6.371 0 0 1-1.571 3.61 5.8 5.8 0 0 1-4.403 1.947z" transform="rotate(-14 190.61 -40.464)" style="fill:#f53939"/>
            </g>
            <g data-name="Group 6" transform="rotate(-14 233.028 -78.083)">
                <ellipse data-name="Ellipse 10" cx="1.878" cy="1.818" rx="1.878" ry="1.818" style="fill:#14242f"/>
                <path data-name="Path 42758" d="M1.878 0a1.849 1.849 0 0 1 1.879 1.818 1.849 1.849 0 0 1-1.879 1.818A1.849 1.849 0 0 1 0 1.818 1.849 1.849 0 0 1 1.878 0z" transform="translate(4.924)" style="fill:#14242f"/>
                <path data-name="Path 3" d="M0 0h5.268v1.077a2.634 2.634 0 0 1-5.268 0zm4.317.951H.951v.126a1.683 1.683 0 0 0 3.366 0z" transform="translate(0 5.142)" style="fill:#14242f"/>
            </g>
        </g>
    </g>
</svg>
